Coordinates
version=1
nRows=34
nColumns=38
inDegrees=no

Units are S.I. units (second, meters, Newtons, ...)
If the header above contains a line with 'inDegrees', this indicates whether rotational values are in degrees (yes) or radians (no).

endheader
time	pelvis_tilt	pelvis_list	pelvis_rotation	pelvis_tx	pelvis_ty	pelvis_tz	hip_flexion_r	hip_adduction_r	hip_rotation_r	knee_angle_r	ankle_angle_r	subtalar_angle_r	mtp_angle_r	hip_flexion_l	hip_adduction_l	hip_rotation_l	knee_angle_l	ankle_angle_l	subtalar_angle_l	mtp_angle_l	lumbar_extension	lumbar_bending	lumbar_rotation	arm_flex_r	arm_add_r	arm_rot_r	elbow_flex_r	pro_sup_r	wrist_flex_r	wrist_dev_r	arm_flex_l	arm_add_l	arm_rot_l	elbow_flex_l	pro_sup_l	wrist_flex_l	wrist_dev_l
1.59	-2.22607	1.53155	-2.45203	0.688432	1.52305	0.941996	-0.204571	-0.0447063	-0.263399	0.288777	0.311435	0	0	0.3509	0.0935195	-0.226953	0	0.119753	0	0	-0.0721316	-0.120251	-0.0768957	-0.0912488	-0.0689142	-0.230523	0.328704	1.41404	0	0	-0.225649	-0.482127	0.59114	0.655857	0.731533	0	0
1.6	-2.15641	1.52819	-2.52467	0.687878	1.53509	0.940289	-0.203847	-0.0481054	-0.253163	0.315626	0.312271	0	0	0.35769	0.0995059	-0.217023	0	0.120467	0	0	-0.0710593	-0.127893	-0.0740282	-0.0917636	-0.0663557	-0.233271	0.324492	1.41739	0	0	-0.229106	-0.481757	0.58994	0.651949	0.726968	0	0
1.61	-2.43516	1.52814	-2.24931	0.686916	1.54878	0.940818	-0.218394	-0.0484923	-0.256055	0.334525	0.31022	0	0	0.339741	0.0903518	-0.214799	0	0.124515	0	0	-0.0779126	-0.120591	-0.0708808	-0.0912874	-0.0668141	-0.23556	0.318353	1.41869	0	0	-0.230991	-0.475198	0.588076	0.642859	0.721499	0	0
1.62	-2.36908	1.52504	-2.32167	0.686419	1.56186	0.939644	-0.219494	-0.0593425	-0.252335	0.361714	0.310891	0	0	0.343922	0.0916712	-0.214759	0.00950589	0.125572	0	0	-0.0755017	-0.128013	-0.0645427	-0.0928096	-0.0649456	-0.237321	0.313293	1.41854	0	0	-0.236833	-0.474136	0.586154	0.640509	0.717911	0	0
1.63	-2.27084	1.5219	-2.42596	0.685878	1.57527	0.938432	-0.216907	-0.0718902	-0.247017	0.392938	0.310503	0	0	0.354494	0.0927097	-0.221161	0.0476393	0.127684	0	0	-0.0702019	-0.136876	-0.0576343	-0.0957125	-0.0630572	-0.239203	0.308234	1.41839	0	0	-0.243946	-0.474194	0.584594	0.641023	0.713469	0	0
1.64	-2.17949	1.51909	-2.5233	0.685304	1.58905	0.937169	-0.212688	-0.083679	-0.239122	0.425758	0.307366	0	0	0.36912	0.0917154	-0.233463	0.09868	0.13245	0	0	-0.0628307	-0.145075	-0.0499996	-0.0997613	-0.0615244	-0.241333	0.30282	1.41869	0	0	-0.252186	-0.474923	0.583397	0.642894	0.708565	0	0
1.65	-2.03714	1.52109	-2.67228	0.684757	1.60312	0.935295	-0.199538	-0.0926107	-0.228381	0.464445	0.302344	0	0	0.3964	0.0839441	-0.260317	0.168431	0.150227	0	0	-0.0472379	-0.149731	-0.0420915	-0.115387	-0.0698968	-0.154343	0.315549	1.30143	0	0	-0.263314	-0.477707	0.591025	0.649982	0.67708	0	0
1.66	-2.001	1.51773	-2.71464	0.683896	1.61775	0.934223	-0.195164	-0.103357	-0.217666	0.500318	0.290573	0	0	0.402816	0.0837147	-0.264753	0.208794	0.150419	0	0	-0.0393475	-0.155534	-0.0337641	-0.120671	-0.0699427	-0.161089	0.30945	1.31073	0	0	-0.273415	-0.477746	0.589874	0.652831	0.675594	0	0
1.67	-1.8909	1.51661	-2.83122	0.682907	1.63235	0.932767	-0.179235	-0.114694	-0.204268	0.546877	0.274961	0	0	0.416353	0.0821915	-0.275454	0.249987	0.144344	0	0	-0.0251929	-0.160371	-0.0251591	-0.126621	-0.07063	-0.170297	0.302914	1.32385	0	0	-0.284876	-0.478163	0.590509	0.656881	0.671825	0	0
1.68	-1.76178	1.51426	-2.96386	0.681535	1.6468	0.931489	-0.157999	-0.126906	-0.190953	0.598906	0.252159	0	0	0.428654	0.0838289	-0.27912	0.282686	0.122358	0	0	-0.010256	-0.166017	-0.0186518	-0.125174	-0.0651315	-0.248567	0.282948	1.42497	0	0	-0.294732	-0.481782	0.602302	0.66477	0.645833	0	0
1.69	-1.67419	1.5082	-3.05172	0.679732	1.66082	0.93077	-0.13435	-0.142143	-0.17827	0.656277	0.219979	0	0	0.437167	0.0899888	-0.277599	0.311111	0.0960248	0	0	0.000824718	-0.174688	-0.0176299	-0.132434	-0.0666753	-0.244324	0.284431	1.42088	0	0	-0.305658	-0.483204	0.601901	0.670355	0.643358	0	0
1.7	-1.53372	1.49461	3.09386	0.677948	1.67437	0.929437	-0.107414	-0.164769	-0.16811	0.709758	0.185835	0	0	0.453391	0.103136	-0.276003	0.344891	0.0816335	0	0	0.0161786	-0.192252	-0.0205284	-0.140345	-0.0662331	-0.234786	0.288986	1.41217	0	0	-0.32	-0.489891	0.599744	0.684528	0.640148	0	0
1.71	-1.58632	1.49186	-3.13099	0.675574	1.68743	0.930622	-0.0766796	-0.173804	-0.152096	0.784697	0.125911	0	0	0.453278	0.107148	-0.268555	0.378042	0.0770438	0	0	0.0133038	-0.195847	-0.0273016	-0.144668	-0.0700777	-0.212193	0.29438	1.38479	0	0	-0.324723	-0.487846	0.595818	0.68414	0.65174	0	0
1.72	-1.55713	1.48195	3.12972	0.673788	1.70054	0.930349	-0.0531461	-0.188756	-0.139118	0.838546	0.0770376	0	0	0.460736	0.11716	-0.265188	0.41302	0.0761544	0	0	0.0181869	-0.208416	-0.0340649	-0.147491	-0.0686931	-0.220967	0.293819	1.40066	0	0	-0.334468	-0.49571	0.59768	0.699502	0.64863	0	0
1.73	-1.61653	1.48204	-3.08916	0.671742	1.71318	0.931584	-0.0175911	-0.190912	-0.118675	0.913506	0.00461036	0	0	0.455722	0.117487	-0.260393	0.440634	0.0728079	0	0	0.013453	-0.207489	-0.03999	-0.154124	-0.0766087	-0.168781	0.304241	1.33594	0	0	-0.33579	-0.498176	0.61011	0.704694	0.642684	0	0
1.74	-1.6568	1.47826	-3.04409	0.669877	1.72577	0.932271	0.0108771	-0.196458	-0.102211	0.974008	-0.0579194	0	0	0.447941	0.122139	-0.257865	0.459844	0.0690192	0	0	0.0101323	-0.210558	-0.0450861	-0.154254	-0.0782959	-0.178184	0.301297	1.35055	0	0	-0.338071	-0.502614	0.618058	0.71181	0.646749	0	0
1.75	-1.66251	1.47263	-3.03312	0.668073	1.73826	0.932444	0.033234	-0.204925	-0.0906686	1.02096	-0.112132	0	0	0.440464	0.129101	-0.258363	0.474418	0.0694668	0	0	0.0103536	-0.216115	-0.0504714	-0.15573	-0.0801088	-0.185665	0.299486	1.36437	0	0	-0.34182	-0.509639	0.626512	0.723273	0.65221	0	0
1.76	-1.637	1.46477	-3.05194	0.666719	1.75075	0.931991	0.0377487	-0.208677	-0.0788791	1.03306	-0.156749	0	0	0.434637	0.138247	-0.261014	0.48725	0.0761924	0	0	0.0141898	-0.226042	-0.0573966	-0.159274	-0.080265	-0.192077	0.300494	1.37696	0	0	-0.349378	-0.520965	0.631558	0.741685	0.656995	0	0
1.77	-1.65152	1.46174	-3.03339	0.664741	1.76238	0.932907	0.067883	-0.214866	-0.0679822	1.08244	-0.220637	0	0	0.421725	0.144221	-0.259942	0.492745	0.0830153	0	0	0.0124539	-0.228042	-0.0616639	-0.161043	-0.0835382	-0.198013	0.303595	1.38588	0	0	-0.348706	-0.524764	0.638018	0.748781	0.66054	0	0
1.78	-1.6645	1.45847	-3.01723	0.662888	1.77376	0.934084	0.0970377	-0.220023	-0.0563762	1.12616	-0.276485	0	0	0.407142	0.151272	-0.256688	0.494458	0.0900718	0	0	0.0107078	-0.230339	-0.0647412	-0.163611	-0.0861489	-0.207246	0.309582	1.39611	0	0	-0.346476	-0.527948	0.643609	0.752613	0.665736	0	0
1.79	-1.68213	1.45558	-2.99709	0.66121	1.78493	0.935602	0.125346	-0.222997	-0.0443105	1.16689	-0.307331	0	0	0.390238	0.158648	-0.250827	0.492386	0.0962215	0	0	0.00825924	-0.232179	-0.0678941	-0.164709	-0.088415	-0.217037	0.314261	1.40669	0	0	-0.343953	-0.530275	0.646569	0.754281	0.672861	0	0
1.8	-1.68626	1.45649	-2.99484	0.659674	1.7952	0.937496	0.15602	-0.224289	-0.0349884	1.20283	-0.303192	0	0	0.374962	0.162321	-0.243593	0.486886	0.100999	0	0	0.00770661	-0.229014	-0.0687191	-0.168846	-0.0988099	-0.160726	0.328419	1.32969	0	0	-0.340247	-0.524698	0.636625	0.745797	0.702256	0	0
1.81	-1.7389	1.45171	-2.93598	0.658307	1.80673	0.939763	0.180517	-0.223556	-0.02068	1.24192	-0.276123	0	0	0.347159	0.173023	-0.231333	0.475149	0.106692	0	0	0.000121281	-0.233231	-0.0766789	-0.152282	-0.0884628	-0.278681	0.298358	1.48871	0	0	-0.341418	-0.528554	0.630537	0.751036	0.701733	0	0
1.82	-1.77404	1.45251	-2.89786	0.65703	1.81744	0.942223	0.2058	-0.218985	-0.0109294	1.27006	-0.23883	0	0	0.323052	0.176509	-0.221288	0.463005	0.112143	0	0	-0.00414916	-0.230594	-0.0832242	-0.148297	-0.0914678	-0.276065	0.295276	1.4879	0	0	-0.340364	-0.527621	0.624162	0.749836	0.698677	0	0
1.83	-1.80942	1.45475	-2.85874	0.655806	1.82802	0.944805	0.230324	-0.212849	-0.00384977	1.29134	-0.203382	0	0	0.297894	0.177904	-0.211626	0.448195	0.117086	0	0	-0.00817055	-0.226196	-0.0902982	-0.144242	-0.094256	-0.272656	0.291166	1.48591	0	0	-0.338798	-0.526678	0.618169	0.749052	0.693217	0	0
1.84	-1.84109	1.45826	-2.82225	0.654521	1.83844	0.947354	0.254493	-0.206165	0.000309372	1.3061	-0.174381	0	0	0.273089	0.177704	-0.201823	0.431937	0.121316	0	0	-0.0115045	-0.220353	-0.0981487	-0.140395	-0.0968071	-0.269306	0.287133	1.48267	0	0	-0.336735	-0.526107	0.612927	0.749744	0.68665	0	0
1.85	-1.86695	1.46283	-2.7899	0.653135	1.84868	0.949776	0.278429	-0.199736	0.000912836	1.31483	-0.152233	0	0	0.249808	0.176326	-0.191685	0.415757	0.124961	0	0	-0.0140121	-0.213569	-0.107287	-0.136644	-0.0991113	-0.265754	0.282644	1.47797	0	0	-0.334228	-0.526177	0.608475	0.751516	0.68126	0	0
1.86	-1.86295	1.46498	-2.78512	0.651736	1.85908	0.95152	0.306739	-0.199852	-0.00171463	1.32361	-0.137029	0	0	0.229625	0.178134	-0.182012	0.400803	0.128359	0	0	-0.0137559	-0.211197	-0.118546	-0.134627	-0.100258	-0.261923	0.279199	1.47285	0	0	-0.334158	-0.529437	0.603906	0.756871	0.678363	0	0
1.87	-1.89991	1.4703	-2.73847	0.650128	1.8691	0.953821	0.326356	-0.195012	-0.00741952	1.32045	-0.124305	0	0	0.206436	0.175277	-0.16978	0.384828	0.129982	0	0	-0.018127	-0.203295	-0.130731	-0.131867	-0.102707	-0.255473	0.276698	1.46561	0	0	-0.330281	-0.530518	0.600576	0.758968	0.674733	0	0
1.88	-1.94568	1.47575	-2.682	0.648512	1.87896	0.955982	0.344846	-0.19026	-0.0144516	1.31304	-0.114481	0	0	0.183594	0.171387	-0.157671	0.369637	0.131739	0	0	-0.023728	-0.194777	-0.142904	-0.131007	-0.105036	-0.248714	0.27804	1.45756	0	0	-0.324624	-0.532424	0.598942	0.761798	0.671832	0	0
1.89	-2.01112	1.47876	-2.60558	0.646873	1.88885	0.958168	0.359224	-0.188257	-0.0231003	1.3011	-0.104603	0	0	0.156094	0.169193	-0.143217	0.349478	0.13158	0	0	-0.0321868	-0.187346	-0.153698	-0.121441	-0.101644	-0.313217	0.262369	1.53415	0	0	-0.31672	-0.534851	0.598548	0.762495	0.686835	0	0
1.9	-2.07778	1.48086	-2.5281	0.645338	1.89868	0.960079	0.372525	-0.187464	-0.0327572	1.28561	-0.0941501	0	0	0.128852	0.166556	-0.131217	0.329918	0.132883	0	0	-0.0406757	-0.180842	-0.165029	-0.1209	-0.10292	-0.310677	0.263151	1.5284	0	0	-0.309629	-0.538509	0.5989	0.765438	0.691414	0	0
1.91	-2.14571	1.48157	-2.4494	0.643882	1.90843	0.961796	0.384013	-0.18853	-0.0440425	1.26617	-0.0835563	0	0	0.100865	0.164081	-0.119245	0.309855	0.134212	0	0	-0.0500605	-0.175393	-0.175932	-0.120204	-0.103932	-0.308303	0.263968	1.52246	0	0	-0.301982	-0.542909	0.599049	0.769064	0.695218	0	0
1.92	-2.21268	1.48103	-2.37217	0.642561	1.91805	0.963313	0.394085	-0.191053	-0.0565309	1.24339	-0.0728984	0	0	0.072648	0.161623	-0.107423	0.289902	0.13552	0	0	-0.0600417	-0.170861	-0.185595	-0.119525	-0.104669	-0.305467	0.264514	1.51648	0	0	-0.293147	-0.548161	0.60156	0.772972	0.698936	0	0
